<svg width="73" height="72" viewBox="0 0 73 72" fill="none" xmlns="http://www.w3.org/2000/svg">
<path d="M7.41663 58.5C7.41663 57.2535 8.42013 56.25 9.66663 56.25H27.6666C28.9131 56.25 29.9166 57.2535 29.9166 58.5V61.4475H7.41663V59.121V58.5Z" fill="#34485C"/>
<path d="M5.16663 64.125C5.16663 62.2575 6.67188 60.75 8.54163 60.75H28.7916C30.6614 60.75 32.1666 62.2575 32.1666 64.125V67.5H5.16663V65.1105V64.125Z" fill="#2B4255"/>
<path d="M49.0821 21.7733C48.8746 21.5584 48.6263 21.387 48.3518 21.269C48.0773 21.1511 47.782 21.0891 47.4833 21.0865C47.1845 21.0839 46.8882 21.1408 46.6117 21.2539C46.3352 21.3671 46.084 21.5341 45.8727 21.7454C45.6615 21.9566 45.4944 22.2079 45.3813 22.4844C45.2681 22.7609 45.2112 23.0572 45.2138 23.3559C45.2164 23.6547 45.2785 23.9499 45.3964 24.2244C45.5143 24.4989 45.6857 24.7472 45.9006 24.9548L33.1724 37.683C32.7505 37.2608 32.1781 37.0235 31.5813 37.0233C30.9844 37.0231 30.4119 37.26 29.9897 37.6819C29.5675 38.1038 29.3302 38.6761 29.33 39.273C29.3298 39.8698 29.5667 40.4423 29.9886 40.8645L30.1484 41.0243L18.6959 29.5695L18.8646 29.7405C19.0722 29.9554 19.3204 30.1268 19.595 30.2447C19.8695 30.3627 20.1647 30.4247 20.4635 30.4273C20.7622 30.4299 21.0585 30.373 21.335 30.2599C21.6115 30.1467 21.8627 29.9797 22.074 29.7684C22.2853 29.5572 22.4523 29.3059 22.5655 29.0294C22.6786 28.7529 22.7355 28.4566 22.7329 28.1579C22.7303 27.8591 22.6683 27.5639 22.5503 27.2894C22.4324 27.0149 22.261 26.7666 22.0461 26.559H22.0349L34.7631 13.8308H34.7744C35.1987 14.2406 35.7671 14.4674 36.357 14.4623C36.947 14.4572 37.5113 14.2205 37.9285 13.8034C38.3456 13.3862 38.5823 12.8219 38.5874 12.2319C38.5925 11.642 38.3657 11.0736 37.9559 10.6493L37.7849 10.4783L49.2419 21.9308L49.0821 21.7733Z" fill="#F05542"/>
<path d="M15.6719 29.7292C16.5517 28.8472 17.8994 28.7752 18.6937 29.5695L30.1484 41.0242C30.9427 41.8185 30.8707 43.1662 29.9909 44.046C29.1089 44.928 27.7612 45 26.9669 44.2057L15.5122 32.751C14.7179 31.9567 14.7922 30.609 15.6719 29.7292ZM37.9469 7.45425C38.8244 6.57225 40.1744 6.5025 40.9687 7.29675L52.4212 18.7492C53.2154 19.5435 53.1457 20.8912 52.2637 21.7732C51.3817 22.6552 50.0362 22.725 49.2419 21.9307L37.7849 10.4782C36.9929 9.684 37.0672 8.33625 37.9469 7.45425ZM37.9469 32.9107L41.1262 29.7292L66.5827 55.1835L63.4012 58.365L37.9469 32.9107Z" fill="#F05542"/>
<path d="M63.4011 58.365L66.5826 55.1835C66.7912 54.9741 67.0391 54.8079 67.3121 54.6946C67.5851 54.5812 67.8778 54.5228 68.1734 54.5228C68.4689 54.5228 68.7616 54.5812 69.0346 54.6946C69.3076 54.8079 69.5555 54.9741 69.7641 55.1835C69.9735 55.3921 70.1397 55.64 70.253 55.913C70.3664 56.186 70.4248 56.4786 70.4248 56.7742C70.4248 57.0698 70.3664 57.3625 70.253 57.6355C70.1397 57.9084 69.9735 58.1564 69.7641 58.365L66.5826 61.5487C66.374 61.7581 66.1261 61.9243 65.8531 62.0376C65.5801 62.151 65.2874 62.2094 64.9919 62.2094C64.6963 62.2094 64.4036 62.151 64.1306 62.0376C63.8576 61.9243 63.6097 61.7581 63.4011 61.5487C63.1914 61.3401 63.0249 61.092 62.9114 60.8188C62.7978 60.5456 62.7393 60.2527 62.7393 59.9568C62.7393 59.661 62.7978 59.3681 62.9114 59.0949C63.0249 58.8217 63.1914 58.5736 63.4011 58.365ZM36.3539 34.5015L42.7169 28.1362L45.1041 30.5235C45.4182 30.8364 45.6674 31.2083 45.8375 31.6177C46.0075 32.0272 46.0951 32.4662 46.0951 32.9096C46.0951 33.353 46.0075 33.792 45.8375 34.2015C45.6674 34.6109 45.4182 34.9828 45.1041 35.2957L43.5134 36.8865C43.2004 37.2006 42.8286 37.4498 42.4191 37.6198C42.0096 37.7899 41.5706 37.8774 41.1272 37.8774C40.6839 37.8774 40.2448 37.7899 39.8354 37.6198C39.4259 37.4498 39.054 37.2006 38.7411 36.8865L36.3561 34.5015H36.3539ZM33.1724 37.683C32.7505 37.2608 32.1781 37.0235 31.5813 37.0233C30.9844 37.0231 30.4119 37.26 29.9897 37.6818C29.5675 38.1037 29.3302 38.6761 29.33 39.2729C29.3298 39.8698 29.5667 40.4423 29.9886 40.8645L30.1484 41.0242L18.6959 29.5695L18.8646 29.7405C19.0722 29.9554 19.3204 30.1268 19.595 30.2447C19.8695 30.3626 20.1647 30.4247 20.4635 30.4273C20.7622 30.4299 21.0585 30.373 21.335 30.2598C21.6115 30.1467 21.8627 29.9796 22.074 29.7684C22.2853 29.5571 22.4523 29.3059 22.5655 29.0294C22.6786 28.7529 22.7355 28.4566 22.7329 28.1578C22.7303 27.8591 22.6683 27.5638 22.5503 27.2893C22.4324 27.0148 22.261 26.7665 22.0461 26.559H22.0349C32.9699 37.494 22.0461 26.559 33.1724 37.6965V37.683ZM49.0799 21.7732C48.8735 21.5534 48.625 21.3774 48.3493 21.2555C48.0735 21.1336 47.7761 21.0684 47.4746 21.0637C47.1732 21.059 46.8739 21.115 46.5944 21.2283C46.315 21.3415 46.0612 21.5098 45.8481 21.723C45.635 21.9363 45.4669 22.1902 45.3539 22.4697C45.2408 22.7492 45.1851 23.0485 45.19 23.35C45.1949 23.6514 45.2603 23.9488 45.3824 24.2245C45.5045 24.5002 45.6807 24.7485 45.9006 24.9547L34.7631 13.8172H34.7744C35.1987 14.2271 35.7671 14.4539 36.357 14.4487C36.947 14.4436 37.5113 14.207 37.9285 13.7898C38.3456 13.3726 38.5823 12.8083 38.5874 12.2184C38.5925 11.6284 38.3657 11.0601 37.9559 10.6357L37.7871 10.4647L49.2396 21.9195L49.0799 21.7732Z" fill="#F17F53"/>
</svg>
