<svg width="73" height="72" viewBox="0 0 73 72" fill="none" xmlns="http://www.w3.org/2000/svg">
<g clip-path="url(#clip0_34_104)">
<path d="M51.8112 45H48.7017V36H72.3357V45H65.6892" fill="#F8B84E"/>
<path d="M48.7017 22.5H61.5942L72.3199 36.0448L48.6859 36L48.7017 22.5Z" fill="#4BBFEB"/>
<path d="M52.0834 38.25H54.3649" stroke="#2B4255" stroke-linecap="round" stroke-linejoin="round"/>
<path fill-rule="evenodd" clip-rule="evenodd" d="M72.3334 42.7499V40.4999H68.9764C67.4532 40.4774 67.4532 42.7724 68.9764 42.7499H72.3334Z" fill="#F17F53"/>
<path d="M48.6633 22.5L48.6926 35.9594C48.6926 36.2577 48.8111 36.5438 49.0221 36.7548C49.2331 36.9658 49.5192 37.0844 49.8176 37.0844L71.2038 37.1226C71.42 37.1228 71.6316 37.0607 71.8134 36.9438C71.9953 36.8268 72.1395 36.6601 72.229 36.4634C72.3185 36.2666 72.3494 36.0483 72.318 35.8344C72.2866 35.6205 72.1943 35.4201 72.0521 35.2574L62.2983 22.8395C62.0868 22.5943 61.7808 22.5157 61.4546 22.5135C56.9096 22.5157 48.6633 22.491 48.6633 22.491V22.5ZM50.9583 24.705H60.9461L68.7198 34.8682L50.9448 34.8366L50.9583 24.705Z" fill="#F8B84E"/>
<path fill-rule="evenodd" clip-rule="evenodd" d="M56.5676 23.6226V37.1226H58.8176V23.6226H56.5676Z" fill="#F8B84E"/>
<path d="M0.333374 27.2766V15.75H48.7084V45H0.333374V33.3674" fill="#6197FF"/>
<path d="M6.70537 49.5H0.333374V45H72.3334V49.5H26.8676H6.70537Z" fill="#34485C"/>
<path d="M56.5834 42.75C54.5892 42.7515 52.6521 43.4152 51.0761 44.6369C49.5 45.8586 48.3744 47.5692 47.8759 49.5H65.2886C64.7902 47.5696 63.6649 45.8591 62.0893 44.6375C60.5137 43.4158 58.5771 42.752 56.5834 42.75Z" fill="#576D7E"/>
<path d="M18.3334 56.25C19.576 56.25 20.5834 55.2426 20.5834 54C20.5834 52.7574 19.576 51.75 18.3334 51.75C17.0907 51.75 16.0834 52.7574 16.0834 54C16.0834 55.2426 17.0907 56.25 18.3334 56.25Z" stroke="black" stroke-linecap="round" stroke-linejoin="round"/>
<path d="M56.5834 58.5C60.3113 58.5 63.3334 55.4779 63.3334 51.75C63.3334 48.0221 60.3113 45 56.5834 45C52.8555 45 49.8334 48.0221 49.8334 51.75C49.8334 55.4779 52.8555 58.5 56.5834 58.5Z" fill="#2B4255"/>
<path d="M56.5834 54C57.826 54 58.8334 52.9926 58.8334 51.75C58.8334 50.5074 57.826 49.5 56.5834 49.5C55.3407 49.5 54.3334 50.5074 54.3334 51.75C54.3334 52.9926 55.3407 54 56.5834 54Z" fill="#E9EDED"/>
<path d="M18.3334 42.75C16.3392 42.7515 14.4021 43.4152 12.8261 44.6369C11.25 45.8586 10.1244 47.5692 9.62585 49.5H27.0386C26.5402 47.5696 25.4149 45.8591 23.8393 44.6375C22.2637 43.4158 20.3271 42.752 18.3334 42.75Z" fill="#576D7E"/>
<path d="M18.3334 58.5C22.0613 58.5 25.0834 55.4779 25.0834 51.75C25.0834 48.0221 22.0613 45 18.3334 45C14.6055 45 11.5834 48.0221 11.5834 51.75C11.5834 55.4779 14.6055 58.5 18.3334 58.5Z" fill="#2B4255"/>
<path d="M18.3334 54C19.576 54 20.5834 52.9926 20.5834 51.75C20.5834 50.5074 19.576 49.5 18.3334 49.5C17.0907 49.5 16.0834 50.5074 16.0834 51.75C16.0834 52.9926 17.0907 54 18.3334 54Z" fill="#E9EDED"/>
<path fill-rule="evenodd" clip-rule="evenodd" d="M0.333374 42.7499V40.4999H3.65887C5.17987 40.4774 5.17987 42.7724 3.65887 42.7499H0.333374Z" fill="#F17F53"/>
</g>
<defs>
<clipPath id="clip0_34_104">
<rect width="72" height="72" fill="white" transform="translate(0.333374)"/>
</clipPath>
</defs>
</svg>
