<svg width="56" height="72" viewBox="0 0 56 72" fill="none" xmlns="http://www.w3.org/2000/svg">
<g clip-path="url(#clip0_34_3)">
<path d="M55.9749 5.54877H6.01306V71.9942H55.9749V5.54877Z" fill="#DADADA"/>
<path d="M52.9683 2.77435H3.00653V69.2198H52.9683V2.77435Z" fill="#F6F6F6"/>
<path d="M49.9618 0H0V66.4455H49.9618V0Z" fill="white"/>
<path d="M44.8716 7.77173H20.03V11.5908H44.8716V7.77173Z" fill="#F6F6F6"/>
<path d="M44.8716 14.3535H20.03V18.1726H44.8716V14.3535Z" fill="#F6F6F6"/>
<path d="M44.0184 26.8092H8.56686V30.6283H44.0184V26.8092Z" fill="#F6F6F6"/>
<path d="M44.0184 34.0875H8.56686V37.9066H44.0184V34.0875Z" fill="#F6F6F6"/>
<path d="M44.0184 41.3717H8.56686V45.1908H44.0184V41.3717Z" fill="#F6F6F6"/>
<path d="M44.0184 48.65H8.56686V52.4691H44.0184V48.65Z" fill="#F6F6F6"/>
<path d="M44.0184 55.9342H8.56686V59.7533H44.0184V55.9342Z" fill="#F6F6F6"/>
<path d="M10.1572 25.6775L8.66554 23.1933L6.01306 24.3483L8.6017 16.2632L12.7458 17.5865L10.1572 25.6775Z" fill="#E30613"/>
<path d="M15.5318 25.6775L17.0235 23.1933L19.6759 24.3483L17.0931 16.2632L12.9432 17.5865L15.5318 25.6775Z" fill="#E30613"/>
<path d="M17.2042 17.0478C19.5569 14.695 19.5569 10.8804 17.2042 8.52768C14.8514 6.17492 11.0368 6.17492 8.68408 8.52768C6.33133 10.8804 6.33133 14.695 8.68408 17.0478C11.0368 19.4005 14.8514 19.4005 17.2042 17.0478Z" fill="#F9B233"/>
</g>
<defs>
<clipPath id="clip0_34_3">
<rect width="55.9748" height="72" fill="white"/>
</clipPath>
</defs>
</svg>
